<svg width="204" height="50" viewBox="0 0 204 50" fill="none" xmlns="http://www.w3.org/2000/svg">
<g clip-path="url(#clip0_2194_4)">
<path d="M20.2 47.279C11.145 47.279 5.29301 39.989 5.29301 28.705C5.29301 17.487 11.145 10.239 20.2 10.239C29.256 10.239 35.108 17.487 35.108 28.705C35.108 39.989 29.256 47.279 20.2 47.279ZM20.2 7.99402C7.83601 7.99402 0.156006 15.929 0.156006 28.705C0.156006 41.548 7.83601 49.525 20.2 49.525C32.533 49.525 40.195 41.548 40.195 28.705C40.195 15.736 32.72 7.99402 20.2 7.99402Z" fill="#D1E5E6"/>
<path d="M73.437 16.255V15.249H62.578V16.256L62.931 16.293C64.525 16.451 66.425 17.007 66.425 18.76C66.425 19.801 66.201 20.843 65.719 22.041L58.074 42.439L49.652 21.106C49.047 19.504 48.823 18.615 48.823 17.825C48.823 17.436 48.823 16.522 51.159 16.293L51.511 16.258V15.249H39.125V16.235L39.453 16.289C41.92 16.698 42.989 17.84 44.653 21.839L55.198 47.351H58.288L68.278 21.333C69.637 17.84 70.895 16.521 73.087 16.293L73.437 16.255Z" fill="#D1E5E6"/>
<path d="M97.707 29.5079L77.299 29.9299C77.427 21.4369 81.571 16.1699 88.144 16.1699C94.301 16.1699 97.832 20.1989 97.832 27.2239C97.832 28.1119 97.787 28.9329 97.707 29.5079ZM88.144 14.5029C78.373 14.5029 72.304 20.7129 72.304 30.7079C72.304 41.6009 77.995 47.5999 88.329 47.5999C96.541 47.5999 102.277 43.5449 102.277 37.7409C102.277 35.6139 101.238 34.2929 99.566 34.2929C99.013 34.2929 98.516 34.5319 98.309 34.6739L98.013 34.8769L98.186 35.1959C98.457 35.6939 98.686 36.9729 98.686 37.9899C98.686 42.8159 94.74 45.9329 88.633 45.9329C81.609 45.9329 77.591 40.7579 77.306 31.3559H102.447L102.513 31.0409C102.722 30.0419 102.765 28.8199 102.765 27.9709C102.765 19.4119 97.437 14.5029 88.144 14.5029Z" fill="#D1E5E6"/>
<path d="M122.459 13.885C117.898 13.885 114.422 17.753 112.783 24.565C112.805 21.578 112.865 17.812 113.015 14.487L113.04 13.922L112.51 14.089C110.91 14.592 108.242 15.192 104.625 15.192H104.234V16.197L104.582 16.234C107.703 16.581 108.203 17.614 108.203 20.754V39.986C108.203 43.018 107.61 44.842 104.58 45.192L104.234 45.231V46.235H116.986V45.229L116.636 45.191C114.133 44.921 113.016 44.105 113.016 39.986V32.83C113.016 23.983 117.138 15.925 121.663 15.925C124.876 15.925 125.55 18.822 125.55 21.252C125.55 24.229 124.449 27.193 122.743 28.803L122.378 29.144L122.791 29.426C123.273 29.756 123.855 29.929 124.473 29.929C127.186 29.929 129.567 26.078 129.567 21.688C129.567 16.729 126.976 13.885 122.459 13.885Z" fill="#D1E5E6"/>
<path d="M142.948 15.126L143.3 15.162C144.895 15.32 146.795 15.878 146.795 17.629C146.795 18.674 146.571 19.716 146.089 20.911L138.443 41.311L131.333 23.402C130.831 26.265 129.786 28.241 128.671 29.505L135.567 46.221H138.658L148.648 20.201C150.008 16.71 151.267 15.391 153.457 15.161L153.808 15.124V14.119H142.948V15.126Z" fill="#D1E5E6"/>
<path d="M164.478 40.091V20.487C164.478 18.04 164.805 15.754 165.129 14.762L165.181 14.603L164.904 14.048L164.6 14.127C163.404 14.441 160.179 15.172 156.086 15.172H155.696V16.176L156.043 16.215C159.141 16.565 159.664 17.666 159.664 20.799V40.091C159.664 43.687 158.751 45 156.045 45.297L155.696 45.336V46.34H168.325V45.336L167.976 45.297C165.557 45.031 164.478 44.216 164.478 40.091Z" fill="#D1E5E6"/>
<path d="M203.722 36.541C203.699 36.382 203.676 36.223 203.659 36.064L203.622 35.709H202.515V36.108C202.515 39.76 200.943 42.309 198.691 42.309C197.215 42.309 196.016 41.33 193.94 38.43C191.699 35.247 189.659 32.186 188.445 30.187C196.148 26.639 199.815 24.152 199.815 19.74C199.815 16.356 196.665 13.991 192.155 13.991C187.31 13.991 182.421 16.424 182.421 21.858C182.421 24.405 183.549 25.926 185.437 25.926H186.029L185.797 25.371C185.43 24.501 185.218 23.81 185.218 22.851C185.218 19.496 187.965 16.965 191.607 16.965C194.301 16.965 196.042 18.324 196.042 20.425C196.042 23.936 193.416 25.801 187.53 28.654L178.621 32.989V7.35497C178.621 4.54697 178.815 2.27398 179.155 1.11998L179.222 0.893975L178.811 0.474976L178.57 0.577975C176.314 1.53298 173.174 2.10297 170.17 2.10297H169.78V3.18898L170.149 3.20998C172.967 3.37198 173.871 4.46997 173.871 7.72997V40.216C173.871 43.79 172.993 45.025 170.252 45.297L169.9 45.333V46.34H182.652V45.332L182.299 45.297C179.411 45.021 178.621 43.93 178.621 40.216V35.053L185.276 31.835L189.859 40.098C193.081 46.007 194.889 47.088 197.287 47.088C201.392 47.088 203.844 42.36 203.844 37.789C203.844 37.375 203.784 36.968 203.732 36.609L203.722 36.541Z" fill="#D1E5E6"/>
<path d="M161.559 13.015C163.249 13.015 164.623 11.614 164.623 9.89202C164.623 8.17002 163.249 6.77002 161.559 6.77002C159.869 6.77002 158.494 8.17002 158.494 9.89202C158.494 11.614 159.869 13.015 161.559 13.015Z" fill="#D1E5E6"/>
</g>
<defs>
<clipPath id="clip0_2194_4">
<rect width="204" height="50" fill="white"/>
</clipPath>
</defs>
</svg>
